<svg height="512" viewBox="0 0 40 60" width="512" xmlns="http://www.w3.org/2000/svg"><g id="Page-1" fill="none" fill-rule="evenodd"><g id="036---Melting-Ice-Cream" fill-rule="nonzero"><g id="Icons" transform="translate(1 1)"><path id="Shape" d="m30 31v6.73l-8.3 18.63c-.5221914 1.0092483-1.5636611 1.6430032-2.7 1.6430032s-2.1778086-.6337549-2.7-1.6430032l-9.58-21.5c.7707734-.2949839 1.27983073-1.0347079 1.28-1.86v-2z" fill="#ff9801"/><path id="Shape" d="m27 31v6.73l-8.3 18.63c-.2625599.5302255-.6813825.9671971-1.2 1.252.7197951.4063388 1.5738858.5024917 2.3660093.2663634.7921235-.2361282 1.4541642-.7842326 1.8339907-1.5183634l8.3-18.63v-6.73z" fill="#f57c00"/><path id="Shape" d="m30 11c.0002219.4647963-.0298418.9291132-.09 1.39-.9484733-.2581735-1.9270174-.3893186-2.91-.39-3.029682-.0090186-5.9270639 1.2404773-8 3.45-2.0729361-2.2095227-4.970318-3.4590186-8-3.45-.9829826.0006814-1.96152668.1318265-2.91.39-.0601582-.4608868-.09022189-.9252037-.09-1.39 0-6.07513225 4.9248678-11 11-11s11 4.92486775 11 11z" fill="#f5f5f5"/><path id="Shape" d="m19 0c-.5020055.00396839-1.0031606.04205618-1.5.114 5.4430247.74306918 9.5004822 5.39248845 9.5 10.886 0 .339-.034.671-.065 1h.065c.9829826.0006814 1.9615267.1318265 2.91.39.0601582-.4608868.0902219-.9252037.09-1.39.0015929-2.91786941-1.1568209-5.71668804-3.2200664-7.77993359-2.0632456-2.06324556-4.8620642-3.22165928-7.7799336-3.22006641z" fill="#cfd8dc"/><path id="Shape" d="m19.45 31h-11.45v2c-.00016927.8252921-.5092266 1.5650161-1.28 1.86-.22880179.0924057-.47324291.1399359-.72.14-1.10116878-.0081672-1.99183278-.8988312-2-2v5c0 1.1045695-.8954305 2-2 2s-2-.8954305-2-2v-15c-.00498382-4.9565102 3.30898094-9.3027606 8.09-10.61.94847332-.2581735 1.9270174-.3893186 2.91-.39 3.029682-.0090186 5.9270639 1.2404773 8 3.45-1.6032581 1.6896677-2.6230896 3.8484863-2.91 6.16-.0601582.4608868-.0902219.9252037-.09 1.39-.0034005 2.8079183 1.0703469 5.5101825 3 7.55.1398327.1598339.2901661.3101673.45.45z" fill="#e91e63"/><path id="Shape" d="m38 23v10c.0028231.5305905-.2101411 1.0395388-.59 1.41-.5718399.5684616-1.4291108.7379389-2.1742425.4298346s-1.2323721-1.0335232-1.2357575-1.8398346v5c0 1.1045695-.8954305 2-2 2s-2-.8954305-2-2v-7h-10.55c-.1598339-.1398327-.3101673-.2901661-.45-.45-3.39003-3.5921635-3.9700801-9.0034932-1.4184215-13.232557s7.6093109-6.2388151 12.3676945-4.9145313c4.7583836 1.3242839 8.0506527 5.6578634 8.050727 10.5970883z" fill="#91562d"/><path id="Shape" d="m25.526 12.109c5.4359133.7526901 9.4813817 5.403228 9.474 10.891v10c-.0009466.48011-.1789795.9429954-.5 1.3.5473916.620806 1.4206234.8403049 2.1965022.5521214.7758788-.2881836 1.2940917-1.0245048 1.3034978-1.8521214v-10c.0044573-3.1751544-1.3660424-6.1967205-3.7578473-8.284996-2.391805-2.0882754-5.5706154-3.0386939-8.7161527-2.606004z" fill="#6d4122"/></g><g id="Icons_copy"><path id="Shape" d="m10.4 18.215c.5214527-.1422359 1.0594968-.2145355 1.6-.215.5522847 0 1-.4477153 1-1s-.4477153-1-1-1c-.7174851.0006975-1.43171.0965328-2.124.285-3.4718146.9560795-5.87695115 4.1139469-5.876 7.715.00000002.5522847.44771527 1 1 1s.99999998-.4477153 1-1c-.00101951-2.6983469 1.79936319-5.065441 4.4-5.785z" fill="#fff"/><path id="Shape" d="m31.957 12.674c.012-.223.043-.447.043-.674 0-6.627417-5.372583-12-12-12s-12 5.372583-12 12c0 .227.031.451.043.674-4.8134993 1.6851181-8.03818636 6.2260612-8.043 11.326v15c0 1.6568542 1.34314575 3 3 3s3-1.3431458 3-3v-2.171c.32120837.1133573.65937606.171184 1 .171.044 0 .084-.011.128-.013l9.272 20.818c.6949914 1.3552699 2.0931203 2.2044925 3.6161781 2.1964642 1.5230579-.0080284 2.9121565-.8719429 3.5928219-2.2344642l7.376-16.556c.874116.8071274 2.1437791 1.0187611 3.2324337.5387979s1.7888263-1.5600524 1.7825663-2.7497979v-2.171c.9183012.3246685 1.9370662.1833155 2.7322847-.3791027.7952185-.5624183 1.2679013-1.4758918 1.2677153-2.4498973v-10c-.0048136-5.0999388-3.2295007-9.6408819-8.043-11.326zm-11.957-10.674c5.5203344.00606237 9.9939376 4.47966557 10 10 0 .063-.011.124-.012.186-.6563333-.1172339-1.3213109-.1794501-1.988-.186-2.9556297-.0130009-5.8092467 1.0799345-8 3.064-2.1907017-1.9841495-5.0443526-3.0770978-8-3.064-.6666891.0065499-1.3316667.0687661-1.988.186 0-.062-.012-.123-.012-.186.0060624-5.52033443 4.4796656-9.99393763 10-10zm-14 32c0-.5522847-.44771525-1-1-1s-1 .4477153-1 1v5c0 .5522847-.44771525 1-1 1s-1-.4477153-1-1v-15c.00129714-4.5033494 3.0108267-8.450978 7.353-9.645.8627621-.2348196 1.7528535-.3541934 2.647-.355 2.4423707-.0116389 4.8022452.8830681 6.623 2.511-1.6952523 2.1283346-2.6197978 4.7680299-2.623 7.489-.0011457 2.5133455.7907834 4.9629715 2.263 7h-8.263v-3c0-.5522847-.44771525-1-1-1s-1 .4477153-1 1v6c0 .5522847-.44771525 1-1 1s-1-.4477153-1-1zm24 4.518-2.15 4.826-2.406-5.4 2.205-4.944h2.351zm-13.255-.572 2.204-4.946h2.1l2.2 4.946-3.249 7.305zm2.161 9.761-2.407 5.4-3.255-7.3 2.406-5.4zm-3.256-12.217-1.11-2.49h2.22zm8.7 4.912 2.406 5.4-3.256 7.305-2.407-5.4zm0-4.912-1.11-2.49h2.22zm-14.35-1.49v-1h2.351l2.205 4.946-2.406 5.4-3.169-7.11c.64545305-.5640839 1.01673828-1.3787981 1.019-2.236zm10 24c-.7473528.0212112-1.4412287-.386106-1.787-1.049l-.62-1.39 2.407-5.398 2.407 5.4-.6 1.352c-.3410085.6814397-1.0452424 1.1042918-1.807 1.085zm18-24c0 .5522847-.4477153 1-1 1s-1-.4477153-1-1-.4477153-1-1-1-1 .4477153-1 1v5c0 .5522847-.4477153 1-1 1s-1-.4477153-1-1v-10c0-.5522847-.4477153-1-1-1s-1 .4477153-1 1v2h-9.146c-.042-.044-.082-.086-.127-.137-1.755032-1.8535905-2.7312289-4.3103705-2.727-6.863-.0003871-.4243362.0270048-.8482425.082-1.269.6385343-4.9911121 4.8862085-8.7304187 9.918-8.731.8941465.0008066 1.7842379.1201804 2.647.355 4.3421733 1.194022 7.3517029 5.1416506 7.353 9.645z" fill="#000"/></g></g></g></svg>